<svg width="1200" height="675" viewBox="0 0 1200 675" fill="none" xmlns="http://www.w3.org/2000/svg" role="img" aria-labelledby="title desc">
  <title id="title">AI search everywhere optimization article cover</title>
  <desc id="desc">A technical diagram showing SEO, AEO, GEO, and Search Everywhere Optimization connected by AI search flows.</desc>
  <rect width="1200" height="675" fill="#08111f"/>
  <rect x="58" y="58" width="1084" height="559" rx="28" fill="#0f1b2e" stroke="#2d4367" stroke-width="2"/>
  <path d="M121 196H1079" stroke="#1f3354" stroke-width="2"/>
  <path d="M121 480H1079" stroke="#1f3354" stroke-width="2"/>
  <circle cx="162" cy="127" r="18" fill="#22c55e"/>
  <circle cx="217" cy="127" r="18" fill="#38bdf8"/>
  <circle cx="272" cy="127" r="18" fill="#f59e0b"/>
  <text x="121" y="250" fill="#e5edf8" font-family="Inter, Arial, sans-serif" font-size="54" font-weight="800" letter-spacing="0">AI is changing SEO</text>
  <text x="121" y="306" fill="#91a4c2" font-family="Inter, Arial, sans-serif" font-size="26" font-weight="500" letter-spacing="0">From Search Engine Optimization to Search Everywhere Optimization</text>
  <g>
    <rect x="121" y="360" width="180" height="88" rx="16" fill="#132845" stroke="#38bdf8" stroke-width="2"/>
    <text x="160" y="411" fill="#e0f2fe" font-family="Inter, Arial, sans-serif" font-size="32" font-weight="800" letter-spacing="0">SEO</text>
    <text x="148" y="434" fill="#93c5fd" font-family="Inter, Arial, sans-serif" font-size="14" font-weight="600" letter-spacing="0">rank and click</text>
  </g>
  <g>
    <rect x="351" y="360" width="180" height="88" rx="16" fill="#18273a" stroke="#22c55e" stroke-width="2"/>
    <text x="390" y="411" fill="#dcfce7" font-family="Inter, Arial, sans-serif" font-size="32" font-weight="800" letter-spacing="0">AEO</text>
    <text x="384" y="434" fill="#86efac" font-family="Inter, Arial, sans-serif" font-size="14" font-weight="600" letter-spacing="0">direct answer</text>
  </g>
  <g>
    <rect x="581" y="360" width="180" height="88" rx="16" fill="#2b2136" stroke="#c084fc" stroke-width="2"/>
    <text x="619" y="411" fill="#f3e8ff" font-family="Inter, Arial, sans-serif" font-size="32" font-weight="800" letter-spacing="0">GEO</text>
    <text x="615" y="434" fill="#d8b4fe" font-family="Inter, Arial, sans-serif" font-size="14" font-weight="600" letter-spacing="0">AI citation</text>
  </g>
  <g>
    <rect x="811" y="360" width="268" height="88" rx="16" fill="#312716" stroke="#f59e0b" stroke-width="2"/>
    <text x="852" y="411" fill="#fffbeb" font-family="Inter, Arial, sans-serif" font-size="32" font-weight="800" letter-spacing="0">SEvO</text>
    <text x="850" y="434" fill="#fcd34d" font-family="Inter, Arial, sans-serif" font-size="14" font-weight="600" letter-spacing="0">visibility across surfaces</text>
  </g>
  <path d="M302 404H350" stroke="#5b7398" stroke-width="3"/>
  <path d="M532 404H580" stroke="#5b7398" stroke-width="3"/>
  <path d="M762 404H810" stroke="#5b7398" stroke-width="3"/>
  <path d="M1020 255C1061 255 1094 288 1094 329C1094 370 1061 403 1020 403" stroke="#334e78" stroke-width="3"/>
  <path d="M924 255C883 255 850 288 850 329C850 370 883 403 924 403" stroke="#334e78" stroke-width="3"/>
  <circle cx="972" cy="255" r="10" fill="#38bdf8"/>
  <circle cx="1020" cy="403" r="10" fill="#22c55e"/>
  <circle cx="924" cy="403" r="10" fill="#c084fc"/>
  <text x="121" y="532" fill="#c7d2fe" font-family="Inter, Arial, sans-serif" font-size="18" font-weight="700" letter-spacing="0">Crawlable facts</text>
  <text x="332" y="532" fill="#bbf7d0" font-family="Inter, Arial, sans-serif" font-size="18" font-weight="700" letter-spacing="0">Structured answers</text>
  <text x="582" y="532" fill="#f5d0fe" font-family="Inter, Arial, sans-serif" font-size="18" font-weight="700" letter-spacing="0">Trusted citations</text>
  <text x="817" y="532" fill="#fde68a" font-family="Inter, Arial, sans-serif" font-size="18" font-weight="700" letter-spacing="0">Multi-platform proof</text>
</svg>
