<svg width="1600" height="900" viewBox="0 0 1600 900" fill="none" xmlns="http://www.w3.org/2000/svg">
  <defs>
    <linearGradient id="bg2025" x1="0" y1="0" x2="1600" y2="900" gradientUnits="userSpaceOnUse">
      <stop stop-color="#052E2B"/>
      <stop offset="1" stop-color="#0F766E"/>
    </linearGradient>
    <linearGradient id="line2025" x1="220" y1="170" x2="1380" y2="720" gradientUnits="userSpaceOnUse">
      <stop stop-color="#34D399"/>
      <stop offset="1" stop-color="#2DD4BF"/>
    </linearGradient>
  </defs>
  <rect width="1600" height="900" fill="url(#bg2025)"/>
  <circle cx="210" cy="120" r="170" fill="#10B981" fill-opacity="0.2"/>
  <circle cx="1450" cy="780" r="250" fill="#14B8A6" fill-opacity="0.18"/>
  <g stroke="url(#line2025)" stroke-width="8" stroke-linecap="round" opacity="0.92">
    <path d="M380 570L610 420L860 520L1120 360L1310 520"/>
    <path d="M380 570L620 690L860 520"/>
  </g>
  <g fill="#022C22" stroke="#5EEAD4" stroke-width="8">
    <circle cx="380" cy="570" r="38"/>
    <circle cx="610" cy="420" r="38"/>
    <circle cx="860" cy="520" r="38"/>
    <circle cx="1120" cy="360" r="38"/>
    <circle cx="1310" cy="520" r="38"/>
    <circle cx="620" cy="690" r="38"/>
  </g>
  <rect x="1060" y="570" width="220" height="200" rx="28" fill="#064E3B" stroke="#6EE7B7" stroke-width="8"/>
  <path d="M1170 610L1220 640V700C1220 730 1198 752 1170 758C1142 752 1120 730 1120 700V640L1170 610Z" fill="#A7F3D0"/>
  <text x="120" y="190" fill="#A7F3D0" font-family="ui-sans-serif, system-ui, -apple-system, Segoe UI, Roboto, Arial" font-size="58" font-weight="700" letter-spacing="2">
    BLOCKCHAIN 2025
  </text>
  <text x="120" y="260" fill="#ECFDF5" font-family="ui-sans-serif, system-ui, -apple-system, Segoe UI, Roboto, Arial" font-size="38" font-weight="500">
    Pragmatic Architecture for High-Value Products
  </text>
  <text x="120" y="330" fill="#99F6E4" font-family="ui-sans-serif, system-ui, -apple-system, Segoe UI, Roboto, Arial" font-size="28">
    Reliability, governance, interoperability, observability
  </text>
</svg>

